<svg xmlns="http://www.w3.org/2000/svg" xmlns:xlink="http://www.w3.org/1999/xlink" width="55" height="52" viewBox="0 0 55 52">
    <defs>
        <path id="a" d="M26.72 50.553H0V0h53.441v50.553z"/>
    </defs>
    <g fill="none" fill-rule="evenodd" transform="translate(.777 .889)">
        <mask id="b" fill="#fff">
            <use xlink:href="#a"/>
        </mask>
        <path fill="#00853D" d="M5.962 44.495H47.48c.36 0 .652-.29.652-.646a.648.648 0 0 0-.652-.646H5.962a.648.648 0 0 0-.652.646c0 .357.292.646.652.646zm46.828-7.193a.648.648 0 0 0-.652.646v10.118c0 .66-.54 1.195-1.206 1.195H2.509a1.201 1.201 0 0 1-1.206-1.195V37.948a.648.648 0 0 0-.651-.646.648.648 0 0 0-.652.646v10.118c0 1.371 1.126 2.487 2.51 2.487h48.422c1.383 0 2.51-1.116 2.51-2.487V37.948a.648.648 0 0 0-.652-.646zm-28.074-1.746c.562.408 1.283.61 2.004.61.721 0 1.444-.203 2.006-.61l10.02-7.25a.642.642 0 0 0 .142-.903.656.656 0 0 0-.912-.14l-10.02 7.25a1.866 1.866 0 0 1-.636.282.638.638 0 0 0 .053-.254V.646A.648.648 0 0 0 26.72 0a.648.648 0 0 0-.652.646V34.54c0 .09.02.175.053.253a1.86 1.86 0 0 1-.637-.28l-10.02-7.251a.656.656 0 0 0-.912.14.642.642 0 0 0 .142.902l10.02 7.251z" mask="url(#b)"/>
    </g>
</svg>
