<svg xmlns="http://www.w3.org/2000/svg" width="21" height="19" viewBox="0 0 21 19">
    <path fill="#121212" fill-rule="evenodd" d="M20.954 15.514v1.743c0 .236-.086.44-.259.613a.837.837 0 0 1-.612.258H.913a.837.837 0 0 1-.612-.258.837.837 0 0 1-.26-.613v-1.743c0-.236.087-.44.26-.612a.837.837 0 0 1 .612-.259h19.17c.236 0 .44.086.612.259a.837.837 0 0 1 .26.612zm0-6.97v1.742c0 .236-.086.44-.259.613a.837.837 0 0 1-.612.259H.913a.837.837 0 0 1-.612-.259.837.837 0 0 1-.26-.613V8.544c0-.236.087-.44.26-.613a.837.837 0 0 1 .612-.259h19.17c.236 0 .44.087.612.259a.837.837 0 0 1 .26.613zm0-6.971v1.743c0 .236-.086.44-.259.612a.837.837 0 0 1-.612.259H.913a.837.837 0 0 1-.612-.259.837.837 0 0 1-.26-.612V1.573c0-.236.087-.44.26-.613A.837.837 0 0 1 .913.702h19.17c.236 0 .44.086.612.258a.837.837 0 0 1 .26.613z"/>
</svg>
