<svg xmlns="http://www.w3.org/2000/svg" width="16" height="16" viewBox="0 0 16 16">
    <g fill="none" fill-rule="evenodd">
        <path fill="#333" d="M16 7.5v1c0 .139-.106.257-.318.354-.212.097-.47.146-.773.146H1.091c-.303 0-.56-.049-.773-.146C.106 8.757 0 8.64 0 8.5v-1c0-.139.106-.257.318-.354C.53 7.049.788 7 1.091 7h13.818c.303 0 .56.049.773.146.212.097.318.215.318.354z"/>
        <path fill="#121212" d="M8.5 16h-1c-.139 0-.257-.106-.354-.318A1.847 1.847 0 0 1 7 14.909V1.091c0-.303.049-.56.146-.773C7.243.106 7.36 0 7.5 0h1c.139 0 .257.106.354.318.097.212.146.47.146.773v13.818c0 .303-.049.56-.146.773-.097.212-.215.318-.354.318z"/>
    </g>
</svg>
